<?xml version="1.0" encoding="UTF-8"?>
<svg version="1.1" xmlns="http://www.w3.org/2000/svg" width="1024" height="1024">
<path d="M0 0 C337.92 0 675.84 0 1024 0 C1024 337.92 1024 675.84 1024 1024 C686.08 1024 348.16 1024 0 1024 C0 686.08 0 348.16 0 0 Z " fill="#091122" transform="translate(0,0)"/>
<path d="M0 0 C7.06608175 2.79668078 13.51764121 7.08438036 20 11 C22.16017286 12.28081634 24.3216849 13.55937617 26.484375 14.8359375 C29.91662993 16.86412187 33.34763118 18.8941864 36.77075195 20.93774414 C44.20724943 25.37450472 51.69770735 29.70089405 59.25 33.9375 C65.93941517 37.6910491 72.58785989 41.4859986 79.14038086 45.47387695 C83.03256502 47.83704616 86.95544705 50.14039096 90.8984375 52.41796875 C92.48313843 53.33461304 92.48313843 53.33461304 94.09985352 54.26977539 C96.18153438 55.47189507 98.26523598 56.67052497 100.35131836 57.86499023 C119.66670345 69.03277145 119.66670345 69.03277145 122.44921875 75.82421875 C123.78266082 81.09178776 123.61809576 85.93968081 122.0625 91.125 C116.4797192 98.90705809 108.39192161 103.92159916 100.25 108.6875 C98.19874528 109.9119676 96.14797384 111.13724511 94.09765625 112.36328125 C93.0730127 112.97252441 92.04836914 113.58176758 90.99267578 114.20947266 C86.52652491 116.88158479 82.10610776 119.62522631 77.6875 122.375 C75.95983457 123.44693563 74.23196574 124.5185435 72.50390625 125.58984375 C71.17576904 126.41331299 71.17576904 126.41331299 69.82080078 127.25341797 C53.43312489 137.40033101 37.00148567 147.47571515 20.51806641 157.46630859 C18.16483588 158.89960258 15.82119176 160.34717919 13.48046875 161.80078125 C12.79944092 162.21980713 12.11841309 162.63883301 11.41674805 163.07055664 C9.66017732 164.15143719 7.90798725 165.23942849 6.15625 166.328125 C0.05949373 169.55759491 -5.35711697 170.86704248 -12 169 C-16.60041618 166.52285283 -20.87712584 163.36080842 -22.59627056 158.21533775 C-23.09784576 155.46310231 -23.1358639 152.85340772 -23.14717102 150.05459595 C-23.15432632 148.83771591 -23.16148163 147.62083588 -23.16885376 146.36708069 C-23.17169377 145.02157618 -23.17440553 143.6760714 -23.17700195 142.33056641 C-23.18326957 140.91115656 -23.18991664 139.49174835 -23.19691467 138.07234192 C-23.21791669 133.41542699 -23.22831136 128.75851186 -23.23828125 124.1015625 C-23.24232982 122.49695188 -23.24644678 120.89234144 -23.25063133 119.28773117 C-23.26967213 111.75069547 -23.2839072 104.21366952 -23.2922433 96.6766144 C-23.3020211 87.98022189 -23.32835928 79.28408354 -23.36874419 70.58778059 C-23.39890371 63.86239425 -23.41371189 57.13708079 -23.41702431 50.41162813 C-23.41937439 46.39614662 -23.42832956 42.380937 -23.45348549 38.36552811 C-23.47676952 34.58811346 -23.4809984 30.81114969 -23.47072411 27.03368187 C-23.47022876 25.64938418 -23.47654903 24.26506426 -23.49028015 22.88083458 C-23.61169813 9.91269681 -23.61169813 9.91269681 -19 5 C-12.86845533 -0.40159887 -8.10642326 -1.49045576 0 0 Z " fill="#EC2925" transform="translate(114,425)"/>
<path d="M0 0 C10.56 0 21.12 0 32 0 C36.2034767 19.36376353 40.18107924 38.75288121 43.97473145 58.19989014 C44.65709016 61.6948195 45.34236753 65.18917663 46.02734375 68.68359375 C47.35429655 75.4551957 48.6782183 82.22738681 50 89 C50.33 89 50.66 89 51 89 C52.54560349 80.87574524 54.08653571 72.75060959 55.625 64.625 C55.85242889 63.42426849 56.07985779 62.22353699 56.31417847 60.98641968 C59.4265413 44.53772055 62.46998064 28.08087313 65.28564453 11.57861328 C65.5020459 10.32161621 65.71844727 9.06461914 65.94140625 7.76953125 C66.21513062 6.15461792 66.21513062 6.15461792 66.49438477 4.50708008 C67 2 67 2 68 0 C78.23 0 88.46 0 99 0 C99 46.53 99 93.06 99 141 C92.4 141 85.8 141 79 141 C78.67 109.65 78.34 78.3 78 46 C73.0166901 72.39596965 68.08115554 98.79019662 63.4765625 125.25463867 C63.31651733 126.1678035 63.15647217 127.08096832 62.99157715 128.02180481 C62.69275402 129.72689344 62.39646202 131.43242832 62.10314941 133.13847351 C61.11278145 138.7744371 61.11278145 138.7744371 60 141 C53.07 141 46.14 141 39 141 C35.02967612 120.76712433 31.13095217 100.52121505 27.30072021 80.26132202 C26.85125226 77.88412736 26.40126274 75.50703126 25.95074463 73.1300354 C25.31184554 69.75757651 24.67511881 66.38471482 24.0390625 63.01171875 C23.847677 62.00265472 23.6562915 60.9935907 23.45910645 59.95394897 C23.28133667 59.00839142 23.10356689 58.06283386 22.92041016 57.08862305 C22.76609528 56.2712114 22.6117804 55.45379974 22.45278931 54.61161804 C21.89926605 51.41898231 21.45824253 48.20769772 21 45 C20.67 76.68 20.34 108.36 20 141 C13.4 141 6.8 141 0 141 C0 94.47 0 47.94 0 0 Z " fill="#FCFCFC" transform="translate(257,438)"/>
<path d="M0 0 C7.34345915 4.88204043 10.93361106 12.22371632 12.734375 20.71484375 C13.01331625 23.69776852 13.0282726 26.66220974 13.02490234 29.65673828 C13.03161957 30.52445358 13.03833679 31.39216888 13.04525757 32.28617859 C13.06417261 35.14006363 13.068159 37.99371251 13.0703125 40.84765625 C13.07674676 42.84675185 13.08347558 44.84584652 13.09048462 46.84494019 C13.10244251 51.03271667 13.10616716 55.22041078 13.10498047 59.40820312 C13.10477779 64.74403648 13.13203399 70.07933419 13.16652489 75.41504097 C13.18889523 79.54520028 13.19281486 83.67523297 13.19176102 87.80544662 C13.19410351 89.77081007 13.20284979 91.73617774 13.21842575 93.70148087 C13.41618139 121.23942383 13.41618139 121.23942383 3.80078125 131.0625 C-4.18852 137.45092047 -12.06276248 138.90687826 -21.953125 138.96484375 C-23.24379883 138.99578125 -23.24379883 138.99578125 -24.56054688 139.02734375 C-34.87202836 139.08950792 -41.61768574 136.3115041 -49.09375 129.1953125 C-55.34687348 122.05370565 -56.41453757 114.05988781 -56.42675781 104.88232422 C-56.43172272 103.99072098 -56.43668762 103.09911774 -56.44180298 102.18049622 C-56.45640546 99.23100002 -56.46322468 96.28155766 -56.46875 93.33203125 C-56.47450457 91.27662149 -56.48026227 89.22121174 -56.48602295 87.165802 C-56.49652857 82.85337067 -56.5023736 78.54095795 -56.50585938 74.22851562 C-56.51133243 68.72089885 -56.53533696 63.21353075 -56.56383133 57.70599174 C-56.58252203 53.45758361 -56.58766681 49.20923449 -56.58919525 44.96078873 C-56.59220957 42.93154674 -56.60019656 40.90230549 -56.61338043 38.8731041 C-56.63056988 36.02312488 -56.62852899 33.17374148 -56.62207031 30.32373047 C-56.6312851 29.49634872 -56.64049988 28.66896698 -56.6499939 27.81651306 C-56.58452878 18.5244328 -54.21083503 10.10715496 -47.83984375 3.16015625 C-35.22934257 -8.93870168 -14.42474014 -8.1823095 0 0 Z " fill="#FDFDFD" transform="translate(429.265625,442.28515625)"/>
<path d="M0 0 C7.59 0 15.18 0 23 0 C24.14339844 3.16464844 25.28679688 6.32929688 26.46484375 9.58984375 C27.56955738 12.64143929 28.6752339 15.6926843 29.78100586 18.74389648 C30.5512213 20.87080976 31.32042925 22.99808814 32.08862305 25.12573242 C33.19057147 28.17722725 34.29609182 31.22740686 35.40234375 34.27734375 C35.74716293 35.23462875 36.09198212 36.19191376 36.44725037 37.1782074 C36.76750687 38.05904495 37.08776337 38.93988251 37.41772461 39.84741211 C37.69974228 40.62684677 37.98175995 41.40628143 38.27232361 42.20933533 C38.86094472 43.99056985 38.86094472 43.99056985 40 45 C40.34780518 43.95658447 40.69561035 42.91316895 41.05395508 41.83813477 C45.70263672 27.89208984 50.35131836 13.94604492 55 0 C62.59 0 70.18 0 78 0 C72.07550963 16.90255958 66.04920533 33.7502771 59.61791992 50.4675293 C58.39954762 53.6404925 57.19676831 56.81883759 56 60 C55.66613281 60.85883789 55.33226562 61.71767578 54.98828125 62.60253906 C54.56095703 63.76221191 54.56095703 63.76221191 54.125 64.9453125 C53.88007812 65.59258301 53.63515625 66.23985352 53.3828125 66.90673828 C52.19923436 73.37867639 55.72143879 79.88610291 58.04296875 85.77734375 C58.44904861 86.82088516 58.85512848 87.86442657 59.27351379 88.93959045 C60.57277823 92.27436244 61.88008432 95.60591652 63.1875 98.9375 C64.04804114 101.14367936 64.90807229 103.35005771 65.76757812 105.55664062 C70.31037183 117.21798805 70.31037183 117.21798805 74.95166016 128.84033203 C75.23680984 129.54541397 75.52195953 130.25049591 75.81575012 130.97694397 C76.5508731 132.78768377 77.29142173 134.59621835 78.0324707 136.40454102 C79 139 79 139 79 141 C71.41 141 63.82 141 56 141 C53.39583788 135.14063522 50.87524796 129.31618107 48.546875 123.3515625 C48.24179016 122.57235443 47.93670532 121.79314636 47.62237549 120.99032593 C46.98603303 119.36232632 46.35084948 117.73387327 45.71679688 116.10498047 C44.74348278 113.60828235 43.7624671 111.11469479 42.78125 108.62109375 C42.16098582 107.03143429 41.54117748 105.44159687 40.921875 103.8515625 C40.48134796 102.73595444 40.48134796 102.73595444 40.03192139 101.59780884 C38.86856781 98.58925819 38 96.25533589 38 93 C37.34 93 36.68 93 36 93 C35.73719238 94.29091553 35.47438477 95.58183105 35.20361328 96.91186523 C34.09227825 101.90118359 32.50064774 106.61674672 30.7421875 111.41015625 C30.43427277 112.26306747 30.12635803 113.1159787 29.80911255 113.99473572 C28.83623404 116.68589277 27.85576244 119.37420748 26.875 122.0625 C26.20912885 123.90020716 25.54375952 125.73809622 24.87890625 127.57617188 C23.25931544 132.05327017 21.62945835 136.52643485 20 141 C12.74 141 5.48 141 -2 141 C-1.26571481 136.59428885 -0.54249308 133.37013514 0.99365234 129.30517578 C1.40432953 128.21028839 1.81500671 127.115401 2.23812866 125.98733521 C2.68290558 124.81846771 3.1276825 123.64960022 3.5859375 122.4453125 C4.04352448 121.22979706 4.50111145 120.01428162 4.9725647 118.76193237 C6.18639724 115.53772477 7.40678153 112.31603652 8.62860107 109.09484863 C9.86309604 105.83684794 11.09147404 102.57654366 12.3203125 99.31640625 C14.12605728 94.52754273 15.9351433 89.73995672 17.74755859 84.95361328 C18.13433777 83.9183551 18.52111694 82.88309692 18.9196167 81.81646729 C19.57818955 80.09962394 20.26559644 78.39303558 21.00274658 76.70843506 C24.62584068 68.27094872 21.64303512 61.25081864 18.61328125 53.15625 C18.27378952 52.22889038 17.93429779 51.30153076 17.58451843 50.34606934 C16.50176603 47.3943949 15.40731273 44.44721943 14.3125 41.5 C13.59623848 39.55236514 12.88073717 37.60445051 12.16601562 35.65625 C9.52439758 28.46926401 6.8804467 21.28360997 4.14208984 14.1328125 C3.8597197 13.39236694 3.57734955 12.65192139 3.28642273 11.88903809 C2.76551518 10.52672366 2.24041914 9.16600012 1.71028137 7.80725098 C0.64922813 5.03121039 0 3.00453177 0 0 Z " fill="#FCFCFC" transform="translate(846,438)"/>
<path d="M0 0 C7.26 0 14.52 0 22 0 C24.87035248 15.351342 27.0050648 30.79514559 29.14489746 46.26147461 C30.00791122 52.49519184 30.87694056 58.72807387 31.74609375 64.9609375 C31.83966534 65.63284874 31.93323692 66.30475998 32.02964401 66.99703217 C33.93607889 80.67725697 35.94651109 94.34104088 38 108 C38.33 108 38.66 108 39 108 C42.93350136 80.82866888 46.76096957 53.64470893 50.4375 26.4375 C50.52717041 25.77393368 50.61684082 25.11036736 50.70922852 24.42669296 C51.80918526 16.28486934 52.90583362 8.14260366 54 0 C60.93 0 67.86 0 75 0 C72.08397143 21.41058321 69.02617974 42.79854458 65.91760254 64.18188477 C64.86169147 71.44658194 63.80778674 78.71157052 62.75390625 85.9765625 C62.640042 86.76121132 62.52617775 87.54586014 62.40886307 88.35428619 C59.91170288 105.56562162 57.45392519 122.78244143 55 140 C43.78 140 32.56 140 21 140 C16.29198055 110.77692558 11.66098558 81.54322919 7.14672852 52.28955078 C6.96896378 51.13884094 6.79119904 49.9881311 6.60804749 48.80255127 C6.25807377 46.53633313 5.90872683 44.27001809 5.56004333 42.00360107 C4.6829575 36.32326283 3.78300177 30.64778631 2.84570312 24.97705078 C2.56614777 23.27477074 2.56614777 23.27477074 2.28094482 21.5381012 C1.92742688 19.39369216 1.56937394 17.2500237 1.20587158 15.10728455 C1.04737732 14.14383621 0.88888306 13.18038788 0.72558594 12.18774414 C0.58505798 11.3516713 0.44453003 10.51559845 0.29974365 9.65419006 C-0.06155794 6.45491267 0 3.21961406 0 0 Z " fill="#FCFCFD" transform="translate(453,439)"/>
<path d="M0 0 C6.44489248 4.57222561 10.19918908 10.83730945 12.0703125 18.46875 C12.76137494 23.79445176 12.88825541 29.0980659 13.0703125 34.46875 C5.8103125 34.46875 -1.4496875 34.46875 -8.9296875 34.46875 C-9.1565625 32.426875 -9.3834375 30.385 -9.6171875 28.28125 C-10.26615989 24.25586719 -10.79489309 21.69920496 -12.8671875 18.15625 C-17.48060434 15.61416317 -21.78279321 15.59639504 -26.9296875 16.46875 C-30.09588845 18.65493637 -30.7193262 19.83766611 -31.9296875 23.46875 C-32.79621514 32.06737041 -30.25083252 38.35344401 -24.9921875 45.09765625 C-19.10331164 51.86763285 -12.64367349 58.29641032 -5.7421875 64.03125 C3.59224646 72.08022166 11.96392177 82.07226064 13.31152344 94.73535156 C14.08518851 106.68631457 13.68175772 118.03900151 5.796875 127.65234375 C-0.68152161 134.4678515 -8.13370952 138.36662367 -17.61328125 138.90234375 C-19.19774818 138.92548783 -20.78267994 138.92642145 -22.3671875 138.90625 C-23.19758545 138.89940186 -24.0279834 138.89255371 -24.88354492 138.88549805 C-33.00352151 138.67304986 -40.37210371 136.85173237 -46.55078125 131.21875 C-53.06138304 122.95600325 -55.11032896 114.4052828 -54.9921875 104.15625 C-54.9715625 101.619375 -54.9509375 99.0825 -54.9296875 96.46875 C-47.9996875 96.46875 -41.0696875 96.46875 -33.9296875 96.46875 C-33.76692708 99.95182292 -33.60416667 103.43489583 -33.44140625 106.91796875 C-32.83106026 111.15311762 -31.66726507 114.11730078 -28.2421875 116.78125 C-23.59970391 118.16144782 -19.52127427 118.1407533 -15.1171875 116.28125 C-11.77792353 113.51443128 -10.1915468 111.4454684 -9.609375 107.05078125 C-9.25211755 98.60759678 -10.81593772 91.7561585 -16.5859375 85.421875 C-21.42854226 80.39385872 -26.64582071 75.77778503 -31.93359375 71.2265625 C-42.50091697 61.92070057 -52.63152458 50.87723228 -54.9296875 36.46875 C-55.52293431 26.86982216 -55.90655317 18.02958497 -50.9296875 9.46875 C-50.34574219 8.39560547 -50.34574219 8.39560547 -49.75 7.30078125 C-45.44173052 0.50697168 -38.43441001 -2.72891482 -30.94921875 -5.1796875 C-20.21190287 -7.04885274 -9.33871177 -5.59671925 0 0 Z " fill="#FCFCFC" transform="translate(634.9296875,442.53125)"/>
<path d="M0 0 C18.81 0 37.62 0 57 0 C57 6.6 57 13.2 57 20 C45.45 20 33.9 20 22 20 C22 32.87 22 45.74 22 59 C31.9 59 41.8 59 52 59 C52 65.6 52 72.2 52 79 C42.1 79 32.2 79 22 79 C22 99.13 22 119.26 22 140 C14.74 140 7.48 140 0 140 C0 93.8 0 47.6 0 0 Z " fill="#FDFDFD" transform="translate(664,439)"/>
<path d="M0 0 C7.26 0 14.52 0 22 0 C22 39.6 22 79.2 22 120 C33.55 120 45.1 120 57 120 C57 126.6 57 133.2 57 140 C38.19 140 19.38 140 0 140 C0 93.8 0 47.6 0 0 Z " fill="#FEFEFE" transform="translate(736,439)"/>
<path d="M0 0 C7.26 0 14.52 0 22 0 C22 46.53 22 93.06 22 141 C14.74 141 7.48 141 0 141 C0 94.47 0 47.94 0 0 Z " fill="#FDFDFE" transform="translate(808,438)"/>
<path d="M0 0 C7.26 0 14.52 0 22 0 C22 46.2 22 92.4 22 140 C14.74 140 7.48 140 0 140 C0 93.8 0 47.6 0 0 Z " fill="#FEFEFE" transform="translate(542,439)"/>
<path d="M0 0 C4.22443392 2.28119432 5.59308481 4.50923054 7 9 C7.19218429 11.79236968 7.28366885 14.48398746 7.2746582 17.27514648 C7.2823246 18.5053653 7.2823246 18.5053653 7.29014587 19.76043701 C7.30401444 22.46406406 7.30308722 25.16743542 7.30078125 27.87109375 C7.30466958 29.75529576 7.30900453 31.6394969 7.31376648 33.5236969 C7.32122273 37.47033532 7.32094164 41.41688427 7.31567383 45.36352539 C7.30987888 50.41529304 7.3268137 55.4666941 7.3500185 60.51840115 C7.36476621 64.40894199 7.36562614 68.29939473 7.36250877 72.18995857 C7.36302143 74.05224394 7.36824865 75.91453432 7.37832069 77.77679253 C7.3906884 80.38325554 7.38389166 82.98900695 7.37231445 85.59545898 C7.38378006 86.74353783 7.38378006 86.74353783 7.39547729 87.91481018 C7.34015644 93.56357359 6.20183261 97.79816739 2.15234375 101.84765625 C-1.97387023 104.05679078 -6.46493381 103.61230122 -11 103 C-14.66347877 100.90658356 -16.52838861 98.91021368 -18 95 C-18.1960319 92.18505769 -18.28348823 89.46946475 -18.2746582 86.65478516 C-18.27976913 85.81527817 -18.28488007 84.97577118 -18.29014587 84.11082458 C-18.30404077 81.33683127 -18.30308503 78.56308647 -18.30078125 75.7890625 C-18.30466855 73.85859078 -18.30900329 71.92811991 -18.31376648 69.99765015 C-18.3212287 65.95087919 -18.32093762 61.90419548 -18.31567383 57.85742188 C-18.3098826 52.67671352 -18.32680184 47.49636307 -18.3500185 42.31571388 C-18.36476616 38.32823607 -18.36562607 34.34084422 -18.36250877 30.35334396 C-18.36302158 28.4436103 -18.36825165 26.53387177 -18.37832069 24.62416458 C-18.3906862 21.95054278 -18.38389254 19.27761497 -18.37231445 16.60400391 C-18.37995819 15.81834549 -18.38760193 15.03268707 -18.39547729 14.22322083 C-18.34976546 9.43653829 -17.66127444 6.13727682 -15 2 C-10.33099627 -1.11266915 -5.46652417 -0.59836278 0 0 Z " fill="#0A101F" transform="translate(413,458)"/>
<path d="M0 0 C0.33 0 0.66 0 1 0 C0.67 32.67 0.34 65.34 0 99 C-0.33 99 -0.66 99 -1 99 C-1.33 73.59 -1.66 48.18 -2 22 C-2.33 22 -2.66 22 -3 22 C-2.55761615 14.46783285 -1.86094772 7.3197277 0 0 Z " fill="#00020C" transform="translate(335,480)"/>
<path d="M0 0 C2.45367757 1.74131956 3.80296322 3.23252106 4.55859375 6.17578125 C5.30954013 12.13699758 4.67900754 17.25529651 3 23 C0.51549776 19.0793087 0.30026031 14.88205651 -0.1875 10.375 C-0.28224609 9.59898437 -0.37699219 8.82296875 -0.47460938 8.0234375 C-1.13000022 2.26000044 -1.13000022 2.26000044 0 0 Z " fill="#161A24" transform="translate(489,528)"/>
<path d="M0 0 C0.33 0 0.66 0 1 0 C1.04254356 1.99954746 1.04080783 4.00041636 1 6 C0 7 0 7 -2.13305664 7.11352539 C-3.04949951 7.10828857 -3.96594238 7.10305176 -4.91015625 7.09765625 C-5.89951172 7.09443359 -6.88886719 7.09121094 -7.90820312 7.08789062 C-8.94912109 7.07951172 -9.99003906 7.07113281 -11.0625 7.0625 C-12.10728516 7.05798828 -13.15207031 7.05347656 -14.22851562 7.04882812 C-16.8190666 7.03699913 -19.40950559 7.02051689 -22 7 C-22 6.34 -22 5.68 -22 5 C-15.07 5 -8.14 5 -1 5 C-0.67 3.35 -0.34 1.7 0 0 Z " fill="#02040E" transform="translate(318,574)"/>
<path d="M0 0 C3.71728269 6.80981199 4.28255173 14.37110317 4 22 C3.71125 21.38125 3.4225 20.7625 3.125 20.125 C2.06279958 17.86674235 2.06279958 17.86674235 0 16 C-0.14507695 13.25514407 -0.18652423 10.61519457 -0.125 7.875 C-0.11146484 6.74384766 -0.11146484 6.74384766 -0.09765625 5.58984375 C-0.0740687 3.72642746 -0.03819719 1.86317407 0 0 Z " fill="#090A11" transform="translate(278,486)"/>
<path d="M0 0 C0.33 0 0.66 0 1 0 C1 4.62 1 9.24 1 14 C0.34 14 -0.32 14 -1 14 C-1 14.99 -1 15.98 -1 17 C-1.66 17 -2.32 17 -3 17 C-2.01 11.39 -1.02 5.78 0 0 Z " fill="#14161C" transform="translate(335,480)"/>
<path d="M0 0 C3 4 6 8 9 12 C8.01 12 7.02 12 6 12 C4.39453125 10.390625 4.39453125 10.390625 2.8125 8.25 C2.01779297 7.20585938 2.01779297 7.20585938 1.20703125 6.140625 C0 4 0 4 0 0 Z " fill="#1F2129" transform="translate(375,563)"/>
<path d="M0 0 C3.80881639 1.44472346 5.29742886 3.32603071 7 7 C6.67 7.99 6.34 8.98 6 10 C4.99421411 8.71283353 3.99553202 7.42011342 3 6.125 C2.443125 5.40570312 1.88625 4.68640625 1.3125 3.9453125 C0 2 0 2 0 0 Z " fill="#12161F" transform="translate(635,511)"/>
<path d="M0 0 C-0.33 3.63 -0.66 7.26 -1 11 C-1.33 11 -1.66 11 -2 11 C-2.33 7.7 -2.66 4.4 -3 1 C-1 0 -1 0 0 0 Z " fill="#040508" transform="translate(309,521)"/>
</svg>
